# 
# Generated by Sweet Home 3D - Sat Feb 08 12:12:08 IST 2020
# http://www.sweethome3d.com/
# 
mtllib entrance.mtl
g frame_1
usemtl white
v -53.33338 0.0 -121.72637
v -53.333405 0.0 122.113625
v -53.333393 22.352 0.19362937
v -53.333405 44.704 122.113625
v -53.33338 44.704 -121.72637
v 53.346596 0.0 122.11364
v 53.34662 0.0 -121.72636
v 53.346607 22.352 0.1936387
v 53.34662 44.704 -121.72636
v 53.346596 44.704 122.11364
v 53.279945 0.0 -121.72636
v 53.279922 0.0 122.11364
v -53.26673 42.671997 122.113625
v -53.26673 0.0 122.113625
v -53.26671 0.0 -121.72637
v -53.26671 44.704 -121.72637
v -53.26673 44.704 122.113625
v -53.26672 22.352 0.19362937
v 53.279934 22.352 0.1936387
v 53.279945 44.704 -121.72636
v 53.279922 44.704 122.11364
v 10.399709 55.651554 122.11363
v 0.006617714 55.866028 -121.726364
v 10.39973 55.651554 -121.726364
v 20.393412 55.01637 122.11363
v 44.301746 50.90529 122.11364
v 37.67655 52.596745 -121.726364
v 44.301765 50.90529 -121.72636
v -20.380219 55.01637 122.11363
v -29.590456 53.984886 -121.726364
v -20.380198 55.01637 -121.726364
v 52.321705 46.884327 -121.72636
v 52.321682 46.884327 122.11364
v 49.28635 48.98087 -121.72636
v 49.28633 48.98087 122.11364
v 44.357204 50.91305 -121.72636
v 44.35718 50.91305 122.11364
v 37.72369 52.606625 -121.726364
v 37.72367 52.606625 122.11363
v 29.640736 53.996502 -121.726364
v 29.640715 53.996502 122.11363
v 20.418955 55.029274 -121.726364
v 20.418934 55.029274 122.11363
v 10.412731 55.665253 -121.726364
v 10.41271 55.665253 122.11363
v 0.006617714 55.879997 -121.726364
v 0.006596397 55.879997 122.11363
v -10.399496 55.665253 -121.726364
v -10.399517 55.665253 122.11363
v -20.40572 55.029274 -121.726364
v -20.40574 55.029274 122.11363
v -29.6275 53.996502 -121.726364
v -29.627522 53.996502 122.11363
v -37.710457 52.606625 -121.726364
v -37.710476 52.606625 122.11363
v -44.343967 50.91305 -121.72637
v -44.34399 50.91305 122.113625
v -49.273117 48.98087 -121.72637
v -49.273136 48.98087 122.113625
v -52.308468 46.884327 -121.72637
v -52.30849 46.884327 122.113625
v -49.21154 48.97552 122.113625
v -52.243073 46.881603 -121.72637
v -49.211517 48.97552 -121.72637
v 52.256306 46.881603 -121.72636
v 52.256287 46.881603 122.11364
v 49.224754 48.97552 -121.72636
v -29.6275 35.411495 -121.726364
v -37.710457 36.801373 -121.726364
v -29.590456 35.42311 -121.726364
v 37.72369 36.801373 -121.726364
v 29.640736 35.411495 -121.726364
v 29.603691 35.42311 -121.726364
v -10.386516 55.651554 122.11363
v -10.386495 55.651554 -121.726364
v -44.288532 50.90529 -121.72637
v -37.663338 52.596745 122.11363
v -44.28855 50.90529 122.113625
v 29.603691 53.984886 -121.726364
v 20.393433 55.01637 -121.726364
v -37.66332 52.596745 -121.726364
v -29.590477 53.984886 122.11363
v 29.60367 53.984886 122.11363
v 0.006596397 55.866028 122.11363
v -52.24309 46.881603 122.113625
v 37.676533 52.596745 122.11363
v 49.22473 48.97552 122.11364
v -49.211517 40.432476 -121.72637
v -49.273117 40.427128 -121.72637
v -52.243073 42.526394 -121.72637
vn -1.0 0.0 -0.0000001
vn 1.0 0.0 0.0000001
vn 0.0 -1.0 -0.0
vn -0.0000001 0.0 1.0
vn 0.0 1.0 0.0
vn 0.0000001 0.0 -1.0
vn -0.6885029 -0.72523355 -0.0000001
vn 0.97430474 -0.2252339 0.0000001
vn -0.97430474 -0.2252339 -0.0000001
vn -0.89233476 -0.45137408 -0.0000001
vn -0.99034184 -0.13864711 -0.0000001
vn -0.9787472 -0.20507081 -0.0000001
vn 0.89233476 -0.45137408 0.0000001
vn 0.9541876 -0.299209 0.0000001
vn 0.99978715 0.02063191 0.0000001
vn 0.99913263 0.041640706 0.0000001
vn 0.99625504 0.08646263 0.0000001
vn 0.9903419 0.13864726 0.0000001
vn 0.9787471 0.2050708 0.0000001
vn 0.95418763 0.29920897 0.0000001
vn 0.89233464 0.45137444 0.0000001
vn 0.6885037 0.72523284 0.0000001
vn -0.6885037 0.72523284 -0.0000001
vn -0.89233464 0.45137444 -0.0000001
vn -0.95418763 0.29920897 -0.0000001
vn -0.9787471 0.2050708 -0.0000001
vn -0.9903419 0.13864726 -0.0000001
vn -0.99625504 0.08646263 -0.0000001
vn -0.99913263 0.041640706 -0.0000001
vn -0.99978715 0.02063191 -0.0000001
vn 0.9962551 -0.08646259 0.0000001
vn 0.99913263 -0.041640736 0.0000001
vn -0.99913263 -0.041640736 -0.0000001
vn -0.9962551 -0.08646259 -0.0000001
vn 0.6885029 -0.72523355 0.0000001
vn 0.99034184 -0.13864711 0.0000001
vn 0.9787472 -0.20507081 0.0000001
vn -0.9541876 -0.299209 -0.0000001
f 1//1 2//1 3//1
f 2//1 4//1 3//1
f 4//1 5//1 3//1
f 5//1 1//1 3//1
f 6//2 7//2 8//2
f 7//2 9//2 8//2
f 9//2 10//2 8//2
f 10//2 6//2 8//2
f 11//3 7//3 12//3
f 13//4 2//4 14//4
f 1//3 15//3 2//3
f 16//5 5//5 17//5
f 15//2 18//2 13//2
f 6//3 12//3 7//3
f 19//1 20//1 11//1
f 1//6 5//6 15//6
f 17//4 4//4 13//4
f 7//6 11//6 20//6
f 9//6 7//6 20//6
f 18//2 15//2 16//2
f 14//2 15//2 13//2
f 4//5 17//5 5//5
f 21//1 19//1 12//1
f 9//5 20//5 21//5
f 9//5 21//5 10//5
f 20//1 19//1 21//1
f 12//4 6//4 21//4
f 6//4 10//4 21//4
f 12//1 19//1 11//1
f 4//4 2//4 13//4
f 17//2 18//2 16//2
f 13//2 18//2 17//2
f 14//3 2//3 15//3
f 5//6 16//6 15//6
f 22//7 23//3 24//7
f 17//8 4//3 16//8
f 16//8 4//3 5//3
f 20//9 9//3 21//9
f 21//9 9//3 10//3
f 24//7 25//10 22//7
f 26//11 27//12 28//11
f 29//13 30//14 31//13
f 10//15 9//15 32//16
f 33//16 32//16 34//17
f 35//17 34//17 36//18
f 37//18 36//18 38//19
f 39//19 38//19 40//20
f 41//20 40//20 42//21
f 43//21 42//21 44//22
f 45//22 44//22 46//5
f 47//5 46//5 48//23
f 49//23 48//23 50//24
f 51//24 50//24 52//25
f 53//25 52//25 54//26
f 55//26 54//26 56//27
f 57//27 56//27 58//28
f 59//28 58//28 60//29
f 61//29 60//29 5//30
f 10//15 32//16 33//16
f 33//16 34//17 35//17
f 35//17 36//18 37//18
f 37//18 38//19 39//19
f 39//19 40//20 41//20
f 41//20 42//21 43//21
f 43//21 44//22 45//22
f 45//22 46//5 47//5
f 47//5 48//23 49//23
f 49//23 50//24 51//24
f 51//24 52//25 53//25
f 53//25 54//26 55//26
f 55//26 56//27 57//27
f 57//27 58//28 59//28
f 59//28 60//29 61//29
f 61//29 5//30 4//30
f 62//31 63//32 64//31
f 65//33 66//33 67//34
f 68//6 69//6 70//6
f 71//6 72//6 73//6
f 74//35 31//13 75//35
f 76//36 77//37 78//36
f 32//6 9//6 65//6
f 34//6 32//6 65//6
f 36//6 34//6 28//6
f 38//6 36//6 27//6
f 40//6 38//6 79//6
f 42//6 40//6 80//6
f 44//6 42//6 24//6
f 46//6 44//6 23//6
f 48//6 46//6 23//6
f 50//6 48//6 31//6
f 52//6 50//6 30//6
f 54//6 52//6 30//6
f 56//6 54//6 76//6
f 58//6 56//6 64//6
f 60//6 58//6 63//6
f 5//6 60//6 16//6
f 77//37 76//36 81//37
f 81//37 82//14 77//37
f 25//4 83//4 43//4
f 30//14 29//13 82//14
f 23//3 22//7 84//3
f 78//36 64//31 76//36
f 25//10 24//7 80//10
f 85//32 16//8 63//32
f 83//4 86//4 41//4
f 21//4 10//4 66//4
f 10//4 33//4 66//4
f 86//12 79//38 27//12
f 33//4 35//4 66//4
f 35//4 37//4 87//4
f 26//4 87//4 37//4
f 37//4 39//4 26//4
f 39//4 41//4 86//4
f 63//32 62//31 85//32
f 41//4 43//4 83//4
f 43//4 45//4 25//4
f 45//4 47//4 22//4
f 47//4 49//4 84//4
f 31//13 74//35 29//13
f 49//4 51//4 74//4
f 28//11 87//34 26//11
f 51//4 53//4 29//4
f 53//4 55//4 82//4
f 55//4 57//4 77//4
f 57//4 59//4 78//4
f 84//3 75//35 23//3
f 59//4 61//4 62//4
f 61//4 4//4 85//4
f 88//6 89//6 90//6
f 17//4 85//4 4//4
f 85//4 62//4 61//4
f 77//4 82//4 55//4
f 67//6 34//6 65//6
f 22//4 25//4 45//4
f 82//4 29//4 53//4
f 29//4 74//4 51//4
f 75//6 48//6 23//6
f 74//4 84//4 49//4
f 21//9 65//33 20//9
f 81//6 54//6 30//6
f 84//4 22//4 47//4
f 82//14 81//37 30//14
f 35//4 87//4 66//4
f 39//4 86//4 26//4
f 57//4 78//4 77//4
f 20//6 65//6 9//6
f 75//35 84//3 74//35
f 27//12 26//11 86//12
f 16//8 85//32 17//8
f 67//6 28//6 34//6
f 79//38 86//12 83//38
f 28//6 27//6 36//6
f 27//6 79//6 38//6
f 79//6 80//6 40//6
f 83//38 80//10 79//38
f 80//6 24//6 42//6
f 24//6 23//6 44//6
f 80//10 83//38 25//10
f 62//31 64//31 78//36
f 67//34 66//33 87//34
f 75//6 31//6 48//6
f 87//34 28//11 67//34
f 31//6 30//6 50//6
f 62//4 78//4 59//4
f 81//6 76//6 54//6
f 76//6 64//6 56//6
f 64//6 63//6 58//6
f 63//6 16//6 60//6
f 65//33 21//9 66//33
g wall_1_2
usemtl wall_1_2
v -67.36421 0.0 119.48931
v -67.36421 0.0 120.75931
v -53.333405 0.0 120.75931
v -53.333405 0.0 119.48931
f 94//3 93//3 92//3
f 94//3 92//3 91//3
v 53.346596 0.0 119.48931
v 53.346596 0.0 120.75931
v 67.25578 0.0 120.75931
v 67.25578 0.0 119.48931
f 98//3 97//3 96//3
f 98//3 96//3 95//3
g wall_1_3
usemtl wall_1_2
v -67.36421 0.0 122.029305
v -53.333405 0.0 122.029305
f 93//3 100//3 99//3
f 93//3 99//3 92//3
v 53.346596 0.0 122.029305
v 67.25578 0.0 122.029305
f 97//3 102//3 101//3
f 97//3 101//3 96//3
g wall_1_4
usemtl wall_1_2
v -67.36421 60.96 120.75931
v -67.36421 60.96 119.48931
v -53.333405 60.96 119.48931
v -53.333405 60.96 120.75931
vn -1.0 0.0 0.0
vn 1.0 0.0 0.0
vn 0.0 0.0 -1.0
vn 0.0 0.0 0.0
f 91//39 92//39 103//39 104//39
f 93//40 94//40 105//40 106//40
f 94//41 91//41 104//41 105//41
v 53.346596 60.96 120.75931
v 53.346596 60.96 119.48931
v 67.25578 60.96 119.48931
v 67.25578 60.96 120.75931
f 95//39 96//39 107//39 108//39
f 97//40 98//40 109//40 110//40
f 98//41 95//41 108//41 109//41
v -53.333405 55.879997 119.48931
v -53.333405 55.879997 120.75931
v 53.346596 55.879997 120.75931
v 53.346596 55.879997 119.48931
f 111//39 112//39 106//39 105//39
f 113//40 114//40 108//40 107//40
f 114//41 111//41 105//41 108//41
f 114//3 113//3 112//3
f 114//3 112//3 111//3
v 52.263416 46.955837 119.4893
v 49.15678 49.053257 119.4893
v 44.241024 50.951347 119.4893
v 37.73049 52.605194 119.4893
v 29.839521 53.969894 119.4893
v 20.782457 55.000534 119.4893
v 10.773641 55.652206 119.4893
v 0.027411055 55.879997 119.4893
v 53.346596 55.879997 119.4893
v 53.346596 44.704 119.4893
v -53.333405 55.879997 119.489296
v -0.014217801 55.879997 119.4893
v -10.7604475 55.652206 119.4893
v -20.769264 55.000534 119.489296
v -29.826328 53.969894 119.489296
v -37.717297 52.605194 119.489296
v -44.227833 50.951347 119.489296
v -49.14359 49.053257 119.489296
v -52.250225 46.955837 119.489296
v -53.333405 44.704 119.489296
v 0.0 0.0 0.0
vn 0.0000001 0.0000004 -1.0
vn 0.0000001 0.0000041 -1.0
vn 0.0000002 0.0000008 -1.0
vn 0.0000001 -0.0000068 -1.0
f 115//40 115//40 116//40
f 121//41 122//41 123//41
f 120//41 121//41 123//41
f 119//41 120//41 123//41
f 118//41 119//41 123//41
f 117//41 118//41 123//41
f 116//41 117//41 123//41
f 115//41 116//41 123//41
f 115//41 123//41 124//41
f 125//40 125//40 134//40
f 134//41 125//43 133//41
f 133//41 125//43 132//41
f 132//41 125//43 131//41
f 131//41 125//43 130//41
f 130//41 125//43 129//41
f 129//41 125//43 128//44
f 128//44 125//43 127//45
f 127//45 125//43 126//46
v 52.263416 46.955837 120.7593
v 49.15678 49.053257 120.7593
v 44.241024 50.951347 120.7593
v 37.73049 52.605194 120.7593
v 29.839521 53.969894 120.7593
v 20.782457 55.000534 120.7593
v 10.773641 55.652206 120.7593
v 0.027411055 55.879997 120.7593
v 53.346596 55.879997 120.7593
v 53.346596 44.704 120.7593
v -53.333405 55.879997 120.75929
v -0.014217801 55.879997 120.7593
v -10.7604475 55.652206 120.7593
v -20.769264 55.000534 120.75929
v -29.826328 53.969894 120.75929
v -37.717297 52.605194 120.75929
v -44.227833 50.951347 120.75929
v -49.14359 49.053257 120.75929
v -52.250225 46.955837 120.75929
v -53.333405 44.704 120.75929
vn -0.7566325 -0.65384036 0.0
vn -0.4628141 -0.88645536 0.0
vn -0.30374974 -0.9527519 0.0
vn -0.2084673 -0.9780293 0.0
vn -0.14179908 -0.9898955 0.0
vn -0.08904424 -0.99602765 0.0
vn -0.043092735 -0.99907106 0.0
vn -0.021192519 -0.9997754 0.0
vn -0.9011641 -0.433478 0.0
vn 0.021192517 -0.9997754 0.0
vn 0.04309273 -0.99907106 0.0
vn 0.08904424 -0.99602765 0.0
vn 0.14179909 -0.98989546 0.0
vn 0.20846725 -0.9780294 0.0
vn 0.30374965 -0.95275193 0.0
vn 0.4628141 -0.88645536 0.0
vn 0.7566325 -0.65384036 0.0
vn 0.9011641 -0.433478 0.0
f 115//47 136//47 137//48 116//48
f 116//48 137//48 138//49 117//49
f 117//49 138//49 139//50 118//50
f 118//50 139//50 140//51 119//51
f 119//51 140//51 141//52 120//52
f 120//52 141//52 142//53 121//53
f 121//53 142//53 143//54 122//54
f 122//5 143//5 144//5 123//5
f 123//40 144//40 145//40 124//40
f 124//55 145//55 136//47 115//47
f 125//5 146//5 147//5 126//5
f 126//56 147//56 148//57 127//57
f 127//57 148//57 149//58 128//58
f 128//58 149//58 150//59 129//59
f 129//59 150//59 151//60 130//60
f 130//60 151//60 152//61 131//61
f 131//61 152//61 153//62 132//62
f 132//62 153//62 154//63 133//63
f 133//63 154//63 155//64 134//64
f 134//39 155//39 146//39 125//39
g wall_1_5
usemtl wall_1_2
v -67.36421 60.96 122.029305
v -53.333405 60.96 122.029305
vn 0.0 0.0 1.0
f 92//39 99//39 156//39 103//39
f 99//65 100//65 157//65 156//65
f 100//40 93//40 106//40 157//40
v 53.346596 60.96 122.029305
v 67.25578 60.96 122.029305
f 96//39 101//39 158//39 107//39
f 101//65 102//65 159//65 158//65
f 102//40 97//40 110//40 159//40
v -53.333405 55.879997 122.029305
v 53.346596 55.879997 122.029305
f 112//39 160//39 157//39 106//39
f 160//65 161//65 158//65 157//65
f 161//40 113//40 107//40 158//40
f 113//3 161//3 160//3
f 113//3 160//3 112//3
v 53.346596 44.704 122.02931
v 53.346596 55.879997 122.02931
v 0.027410833 55.879997 122.029305
v 10.77364 55.652206 122.029305
v 20.782457 55.000534 122.029305
v 29.839521 53.969894 122.02931
v 37.73049 52.605194 122.02931
v 44.241024 50.951347 122.02931
v 49.15678 49.053257 122.02931
v 52.263416 46.955837 122.02931
v -53.333405 44.704 122.029305
v -52.250225 46.955837 122.029305
v -49.14359 49.053257 122.029305
v -44.227833 50.951347 122.029305
v -37.717297 52.605194 122.029305
v -29.82633 53.969894 122.029305
v -20.769264 55.000534 122.029305
v -10.7604475 55.652206 122.029305
v -0.014218023 55.879997 122.029305
vn -0.0000001 -0.000001 1.0
vn -0.0000002 0.0000022 1.0
vn -0.0000003 0.0000009 1.0
vn -0.0000002 -0.0000046 1.0
vn -0.0000001 -0.0000068 1.0
f 162//40 162//40 171//40
f 162//65 163//66 171//65
f 171//65 163//66 170//65
f 170//65 163//66 169//65
f 169//65 163//66 168//65
f 168//65 163//66 167//67
f 167//67 163//66 166//68
f 166//68 163//66 165//69
f 165//69 163//66 164//70
f 172//40 172//40 173//40
f 160//65 172//65 173//65
f 160//65 173//65 174//65
f 160//65 174//65 175//65
f 160//65 175//65 176//65
f 160//65 176//65 177//65
f 160//65 177//65 178//65
f 160//65 178//65 179//65
f 160//65 179//65 180//65
v 53.346596 44.704 120.759315
v 53.346596 55.879997 120.759315
v 0.027410833 55.879997 120.75931
v 10.77364 55.652206 120.75931
v 20.782457 55.000534 120.75931
v 29.839521 53.969894 120.759315
v 37.73049 52.605194 120.759315
v 44.241024 50.951347 120.759315
v 49.15678 49.053257 120.759315
v 52.263416 46.955837 120.759315
v -53.333405 44.704 120.75931
v -52.250225 46.955837 120.75931
v -49.14359 49.053257 120.75931
v -44.227833 50.951347 120.75931
v -37.717297 52.605194 120.75931
v -29.82633 53.969894 120.75931
v -20.769264 55.000534 120.75931
v -10.7604475 55.652206 120.75931
v -0.014218023 55.879997 120.75931
vn -0.04309273 -0.99907106 0.0
vn -0.089044236 -0.99602765 0.0
vn 0.20846726 -0.9780293 0.0
vn 0.1417991 -0.9898955 0.0
vn 0.08904423 -0.99602765 0.0
vn 0.043092735 -0.99907106 0.0
vn 0.021192519 -0.9997754 0.0
f 162//40 181//40 182//40 163//40
f 163//5 182//5 183//5 164//5
f 164//54 183//54 184//71 165//71
f 165//71 184//71 185//72 166//72
f 166//72 185//72 186//51 167//51
f 167//51 186//51 187//50 168//50
f 168//50 187//50 188//49 169//49
f 169//49 188//49 189//48 170//48
f 170//48 189//48 190//47 171//47
f 171//47 190//47 181//55 162//55
f 172//64 191//64 192//63 173//63
f 173//63 192//63 193//62 174//62
f 174//62 193//62 194//61 175//61
f 175//61 194//61 195//73 176//73
f 176//73 195//73 196//74 177//74
f 177//74 196//74 197//75 178//75
f 178//75 197//75 198//76 179//76
f 179//76 198//76 199//77 180//77
f 180//5 199//5 112//5 160//5
f 160//39 112//39 191//39 172//39
g wall_1_6
usemtl wall_1_2
f 104//5 103//5 106//5
f 104//5 106//5 105//5
f 108//5 107//5 110//5
f 108//5 110//5 109//5
f 105//5 106//5 107//5
f 105//5 107//5 108//5
g wall_1_7
usemtl wall_1_2
f 103//5 156//5 157//5
f 103//5 157//5 106//5
f 107//5 158//5 159//5
f 107//5 159//5 110//5
f 106//5 157//5 158//5
f 106//5 158//5 107//5
g wall_2_8
usemtl wall_1_2
v -67.438736 0.0 -121.897606
v -67.438736 0.0 -120.62761
v -53.33338 0.0 -120.62761
v -53.33338 0.0 -121.897606
f 203//3 202//3 201//3
f 203//3 201//3 200//3
v 53.34662 0.0 -121.897606
v 53.34662 0.0 -120.62761
v 67.18126 0.0 -120.62761
v 67.18126 0.0 -121.897606
f 207//3 206//3 205//3
f 207//3 205//3 204//3
g wall_2_9
usemtl wall_1_2
v -67.438736 0.0 -119.35761
v -53.33338 0.0 -119.35761
f 202//3 209//3 208//3
f 202//3 208//3 201//3
v 53.34662 0.0 -119.35761
v 67.18126 0.0 -119.35761
f 206//3 211//3 210//3
f 206//3 210//3 205//3
g wall_2_10
usemtl wall_1_2
v -67.438736 60.96 -120.62761
v -67.438736 60.96 -121.897606
v -53.33338 60.96 -121.897606
v -53.33338 60.96 -120.62761
f 200//39 201//39 212//39 213//39
f 202//40 203//40 214//40 215//40
f 203//41 200//41 213//41 214//41
v 53.34662 60.96 -120.62761
v 53.34662 60.96 -121.897606
v 67.18126 60.96 -121.897606
v 67.18126 60.96 -120.62761
f 204//39 205//39 216//39 217//39
f 206//40 207//40 218//40 219//40
f 207//41 204//41 217//41 218//41
v -53.33338 55.879997 -121.897606
v -53.33338 55.879997 -120.62761
v 53.34662 55.879997 -120.62761
v 53.34662 55.879997 -121.897606
f 220//39 221//39 215//39 214//39
f 222//40 223//40 217//40 216//40
f 223//41 220//41 214//41 217//41
f 223//3 222//3 221//3
f 223//3 221//3 220//3
v 52.26344 46.955837 -121.8976
v 49.156803 49.053257 -121.8976
v 44.241047 50.951347 -121.8976
v 37.73051 52.605194 -121.8976
v 29.839544 53.969894 -121.8976
v 20.782478 55.000534 -121.8976
v 10.773662 55.652206 -121.897606
v 0.027432157 55.879997 -121.897606
v 53.34662 55.879997 -121.8976
v 53.34662 44.704 -121.8976
v -0.014196699 55.879997 -121.897606
v -10.760426 55.652206 -121.897606
v -20.769243 55.000534 -121.897606
v -29.826307 53.969894 -121.897606
v -37.717278 52.605194 -121.897606
v -44.22781 50.951347 -121.897606
v -49.143566 49.053257 -121.897606
v -52.250202 46.955837 -121.897606
v -53.33338 44.704 -121.897606
vn 0.0000002 -0.0000008 -1.0
vn 0.0000001 0.0000068 -1.0
vn 0.0000001 -0.0000003 -1.0
vn 0.0000001 -0.0000041 -1.0
f 224//40 224//40 225//40
f 230//78 231//79 232//80
f 229//81 230//78 232//80
f 228//41 229//81 232//80
f 227//41 228//41 232//80
f 226//41 227//41 232//80
f 225//41 226//41 232//80
f 224//41 225//41 232//80
f 224//41 232//80 233//41
f 220//40 220//40 242//40
f 242//41 220//41 241//41
f 241//41 220//41 240//41
f 240//41 220//41 239//41
f 239//41 220//41 238//41
f 238//41 220//41 237//41
f 237//41 220//41 236//41
f 236//41 220//41 235//41
f 235//41 220//41 234//41
v 52.26344 46.955837 -120.6276
v 49.156803 49.053257 -120.6276
v 44.241047 50.951347 -120.6276
v 37.73051 52.605194 -120.6276
v 29.839544 53.969894 -120.6276
v 20.782478 55.000534 -120.6276
v 10.773662 55.652206 -120.62761
v 0.027432157 55.879997 -120.62761
v 53.34662 55.879997 -120.6276
v 53.34662 44.704 -120.6276
v -0.014196699 55.879997 -120.62761
v -10.760426 55.652206 -120.62761
v -20.769243 55.000534 -120.62761
v -29.826307 53.969894 -120.62761
v -37.717278 52.605194 -120.62761
v -44.22781 50.951347 -120.62761
v -49.143566 49.053257 -120.62761
v -52.250202 46.955837 -120.62761
v -53.33338 44.704 -120.62761
vn -0.30374965 -0.95275193 0.0
vn -0.20846726 -0.9780293 0.0
vn -0.1417991 -0.9898955 0.0
vn -0.08904423 -0.99602765 0.0
vn 0.089044236 -0.99602765 0.0
vn 0.14179908 -0.9898955 0.0
vn 0.2084673 -0.9780293 0.0
vn 0.30374974 -0.9527519 0.0
f 224//47 243//47 244//48 225//48
f 225//48 244//48 245//82 226//82
f 226//82 245//82 246//83 227//83
f 227//83 246//83 247//84 228//84
f 228//84 247//84 248//85 229//85
f 229//85 248//85 249//53 230//53
f 230//53 249//53 250//54 231//54
f 231//5 250//5 251//5 232//5
f 232//40 251//40 252//40 233//40
f 233//55 252//55 243//47 224//47
f 220//5 221//5 253//5 234//5
f 234//77 253//77 254//57 235//57
f 235//57 254//57 255//86 236//86
f 236//86 255//86 256//87 237//87
f 237//87 256//87 257//88 238//88
f 238//88 257//88 258//89 239//89
f 239//89 258//89 259//62 240//62
f 240//62 259//62 260//63 241//63
f 241//63 260//63 261//64 242//64
f 242//39 261//39 221//39 220//39
g wall_2_11
usemtl wall_1_2
v -67.438736 60.96 -119.35761
v -53.33338 60.96 -119.35761
f 201//39 208//39 262//39 212//39
f 208//65 209//65 263//65 262//65
f 209//40 202//40 215//40 263//40
v 53.34662 60.96 -119.35761
v 67.18126 60.96 -119.35761
f 205//39 210//39 264//39 216//39
f 210//65 211//65 265//65 264//65
f 211//40 206//40 219//40 265//40
v -53.33338 55.879997 -119.35761
v 53.34662 55.879997 -119.35761
f 221//39 266//39 263//39 215//39
f 266//65 267//65 264//65 263//65
f 267//40 222//40 216//40 264//40
f 222//3 267//3 266//3
f 222//3 266//3 221//3
v 53.34662 44.704 -119.357605
v 53.34662 55.879997 -119.357605
v 0.027431935 55.879997 -119.35761
v 10.773662 55.652206 -119.35761
v 20.782478 55.000534 -119.35761
v 29.839542 53.969894 -119.35761
v 37.73051 52.605194 -119.35761
v 44.241047 50.951347 -119.35761
v 49.156803 49.053257 -119.35761
v 52.26344 46.955837 -119.35761
v -53.33338 44.704 -119.35762
v -52.250202 46.955837 -119.35762
v -49.143566 49.053257 -119.35762
v -44.22781 50.951347 -119.35762
v -37.717278 52.605194 -119.35762
v -29.826307 53.969894 -119.35761
v -20.769243 55.000534 -119.35761
v -10.7604265 55.652206 -119.35761
v -0.01419692 55.879997 -119.35761
v -53.33338 55.879997 -119.35762
vn -0.000007 0.0 1.0
vn -0.0000011 -0.0000019 1.0
vn -0.0000038 -0.0000004 1.0
vn -0.0000004 -0.0000008 1.0
vn -0.0000003 -0.000001 1.0
vn -0.0000002 -0.0000012 1.0
vn -0.0000002 -0.0000015 1.0
vn -0.0000002 -0.0000021 1.0
vn -0.0000002 -0.0000046 1.0
vn -0.0000001 -0.0000068 1.0
vn -0.0000002 0.0000014 1.0
vn -0.0000003 -0.0000013 1.0
vn -0.0000004 -0.0000004 1.0
vn -0.0000002 0.0000021 1.0
vn -0.0000002 0.0000046 1.0
vn -0.0000001 0.0000068 1.0
f 268//40 268//40 277//40
f 268//90 269//91 277//92
f 277//92 269//91 276//93
f 276//93 269//91 275//94
f 275//94 269//91 274//95
f 274//95 269//91 273//96
f 273//96 269//91 272//97
f 272//97 269//91 271//98
f 271//98 269//91 270//99
f 278//40 278//40 279//40
f 287//100 278//65 279//65
f 287//100 279//65 280//65
f 287//100 280//65 281//65
f 287//100 281//65 282//101
f 287//100 282//101 283//102
f 287//100 283//102 284//103
f 287//100 284//103 285//104
f 287//100 285//104 286//105
v 0.027431935 55.879997 -120.62761
v 20.782478 55.000534 -120.62761
v 29.839542 53.969894 -120.62761
v 37.73051 52.605194 -120.62761
v 44.241047 50.951347 -120.62761
v 49.156803 49.053257 -120.62761
v 52.26344 46.955837 -120.62761
v -53.33338 44.704 -120.62762
v -52.250202 46.955837 -120.62762
v -49.143566 49.053257 -120.62762
v -44.22781 50.951347 -120.62762
v -37.717278 52.605194 -120.62762
v -10.7604265 55.652206 -120.62761
v -0.01419692 55.879997 -120.62761
v -53.33338 55.879997 -120.62762
vn -0.021192517 -0.9997754 0.0
vn -0.14179909 -0.98989546 0.0
vn -0.20846725 -0.9780294 0.0
f 268//40 252//40 251//40 269//40
f 269//5 251//5 288//5 270//5
f 270//106 288//106 249//71 271//71
f 271//71 249//71 289//52 272//52
f 272//52 289//52 290//107 273//107
f 273//107 290//107 291//108 274//108
f 274//108 291//108 292//82 275//82
f 275//82 292//82 293//48 276//48
f 276//48 293//48 294//47 277//47
f 277//47 294//47 252//55 268//55
f 278//64 295//64 296//63 279//63
f 279//63 296//63 297//62 280//62
f 280//62 297//62 298//89 281//89
f 281//89 298//89 299//88 282//88
f 282//88 299//88 256//87 283//87
f 283//87 256//87 255//58 284//58
f 284//58 255//58 300//76 285//76
f 285//76 300//76 301//77 286//77
f 286//5 301//5 302//5 287//5
f 287//39 302//39 295//39 278//39
g wall_2_12
usemtl wall_1_2
f 213//5 212//5 215//5
f 213//5 215//5 214//5
f 217//5 216//5 219//5
f 217//5 219//5 218//5
f 214//5 215//5 216//5
f 214//5 216//5 217//5
g wall_2_13
usemtl wall_1_2
f 212//5 262//5 263//5
f 212//5 263//5 215//5
f 216//5 264//5 265//5
f 216//5 265//5 219//5
f 215//5 263//5 264//5
f 215//5 264//5 216//5
