# Blender v2.79 (sub 0) OBJ File: 'EXPORT ALL IN ONE.blend'
# www.blender.org
v 10.297616 0.000000 -2.602630
v 10.297616 3.514655 -2.602630
v 10.297616 0.000000 -3.215970
v 10.297616 3.514655 -3.215970
v 10.910955 0.000000 -2.602630
v 10.910955 3.514655 -2.602630
v 10.910955 0.000000 -3.215970
v 10.910955 3.514655 -3.215970
v 1.790884 0.000000 -7.652867
v 1.790884 3.514654 -7.652867
v 1.790884 0.000000 -8.266208
v 1.790884 3.514654 -8.266208
v 2.404224 0.000000 -7.652867
v 2.404224 3.514654 -7.652867
v 2.404224 0.000000 -8.266208
v 2.404224 3.514654 -8.266208
v 10.297616 0.000000 -7.652867
v 10.297616 3.514655 -7.652867
v 10.297616 0.000000 -8.266208
v 10.297616 3.514655 -8.266208
v 10.910955 0.000000 -7.652867
v 10.910955 3.514655 -7.652867
v 10.910955 0.000000 -8.266208
v 10.910955 3.514655 -8.266208
v 1.790884 0.000000 -2.602630
v 1.790884 3.514654 -2.602630
v 1.790884 0.000000 -3.215970
v 1.790884 3.514654 -3.215970
v 2.404224 0.000000 -2.602630
v 2.404224 3.514654 -2.602630
v 2.404224 0.000000 -3.215970
v 2.404224 3.514654 -3.215970
v 7.347037 0.000000 -1.892044
v 7.347037 3.514654 -1.892044
v 7.347037 0.000000 -2.505384
v 7.347037 3.514654 -2.505384
v 7.960377 0.000000 -1.892044
v 7.960377 3.514654 -1.892044
v 7.960377 0.000000 -2.505384
v 7.960377 3.514654 -2.505384
v 7.347037 0.000000 0.039076
v 7.347037 3.514654 0.039076
v 7.347037 0.000000 -0.574264
v 7.347037 3.514654 -0.574264
v 7.960377 0.000000 0.039076
v 7.960377 3.514654 0.039076
v 7.960377 0.000000 -0.574264
v 7.960377 3.514654 -0.574264
v 4.709363 0.000000 -1.892044
v 4.709363 3.514654 -1.892044
v 4.709363 0.000000 -2.505384
v 4.709363 3.514654 -2.505384
v 5.322703 0.000000 -1.892044
v 5.322703 3.514654 -1.892044
v 5.322703 0.000000 -2.505384
v 5.322703 3.514654 -2.505384
v 5.317530 0.000000 0.029798
v 5.317530 0.263320 0.029798
v 7.352211 0.000000 0.029798
v 7.352211 0.263320 0.029798
v 5.317530 0.263320 -0.743541
v 7.352211 0.263320 -0.743541
v 5.317530 0.509792 -0.743541
v 7.352211 0.509793 -0.743541
v 5.317530 0.509792 -1.788889
v 7.352211 0.509793 -1.788889
v 5.317530 0.764764 -2.961722
v 7.352211 0.764764 -2.961722
v 5.317530 0.764764 -1.788889
v 7.352211 0.764764 -1.788889
v 7.352211 0.002757 -2.954715
v 5.317530 0.011256 -2.966756
v 4.709363 0.000000 0.039077
v 4.709363 3.514654 0.039077
v 4.709363 0.000000 -0.574264
v 4.709363 3.514654 -0.574264
v 5.322703 0.000000 0.039077
v 5.322703 3.514654 0.039077
v 5.322703 0.000000 -0.574264
v 5.322703 3.514654 -0.574264
v 2.110006 0.000000 -2.918118
v 10.536236 0.000000 -2.918118
v 2.110007 0.000000 -7.973855
v 10.536236 0.000000 -7.973855
v 2.110006 1.514630 -2.918118
v 10.536236 1.514630 -2.918118
v 2.110007 1.514630 -7.973855
v 10.536236 1.514630 -7.973855
v 2.110006 3.482640 -2.918118
v 10.536236 3.482640 -2.918118
v 2.110007 3.482640 -7.973855
v 10.536236 3.482640 -7.973855
v 0.649491 3.482640 -2.041808
v 11.996753 3.482641 -2.041808
v 0.649491 3.482640 -8.850166
v 11.996754 3.482641 -8.850166
v 3.076273 5.292357 -5.445987
v 9.569969 5.292357 -5.445987
v 4.918750 0.000000 -2.918118
v 7.727493 0.000000 -2.918118
v 7.727493 0.000000 -7.973855
v 4.918750 0.000000 -7.973855
v 4.918750 1.514630 -2.918118
v 7.727493 1.514630 -2.918118
v 4.918750 3.482640 -2.918118
v 7.727493 3.482640 -2.918118
v 7.727493 3.482640 -7.973855
v 4.918750 3.482640 -7.973855
v 4.431911 3.482640 -2.041808
v 8.214332 3.482640 -2.041808
v 6.323122 4.778658 -4.052159
v 4.431911 3.482640 0.149277
v 8.214332 3.482640 0.149277
v 6.323121 4.778658 0.149277
v -0.000000 0.000000 0.000000
v -0.000000 1.546679 0.000000
v -0.000000 0.000000 -0.535187
v -0.000000 1.546679 -0.535187
v 12.669741 0.000000 0.000000
v 12.669741 1.546679 0.000000
v 12.669741 0.000000 -0.535187
v 12.669741 1.546679 -0.535187
v 12.136742 0.000000 -0.535187
v 0.533000 0.000000 -0.535187
v 0.533000 1.546679 -0.535187
v 12.136742 1.546679 -0.535187
v 0.533000 0.000000 0.000000
v 12.136742 0.000000 0.000000
v 12.136742 1.546679 0.000000
v 0.533000 1.546679 0.000000
v -0.000000 1.546679 -9.158838
v -0.000000 0.000000 -9.158838
v 0.533000 0.000000 -9.158838
v 12.136742 1.546679 -9.158838
v 12.669743 1.546679 -9.158838
v 12.669743 0.000000 -9.158838
v 12.136742 0.000000 -9.158838
v 0.533000 1.546679 -9.158838
v 12.136742 0.000000 -8.684179
v 12.669743 0.000000 -8.684179
v 12.669743 1.546679 -8.684179
v 12.136742 1.546679 -8.684179
v 0.533000 0.000000 -8.684179
v 0.533000 1.546679 -8.684179
v -0.000000 0.000000 -8.684179
v -0.000000 1.546679 -8.684179
v 7.445592 0.000000 -0.535187
v 5.224148 0.000000 -0.535187
v 5.224148 1.546679 -0.535187
v 7.445593 1.546679 -0.535187
v 5.224148 0.000000 0.000000
v 7.445593 0.000000 0.000000
v 7.445592 1.546679 0.000000
v 5.224148 1.546679 0.000000
vn -1.0000 0.0000 0.0000
vn 0.0000 0.0000 -1.0000
vn 1.0000 0.0000 0.0000
vn 0.0000 0.0000 1.0000
vn 0.0000 -1.0000 0.0000
vn 0.0000 1.0000 0.0000
vn 0.0308 0.8774 0.4787
vn 0.5978 0.8016 0.0000
vn -0.5978 0.8016 0.0000
vn -0.0308 0.8774 0.4787
vn 0.5653 0.8249 0.0000
vn 0.0000 0.8830 -0.4694
vn -0.5653 0.8249 0.0000
vn 0.0000 0.9383 0.3458
s off
f 1//1 2//1 4//1 3//1
f 3//2 4//2 8//2 7//2
f 7//3 8//3 6//3 5//3
f 5//4 6//4 2//4 1//4
f 3//5 7//5 5//5 1//5
f 8//6 4//6 2//6 6//6
f 9//1 10//1 12//1 11//1
f 11//2 12//2 16//2 15//2
f 15//3 16//3 14//3 13//3
f 13//4 14//4 10//4 9//4
f 11//5 15//5 13//5 9//5
f 16//6 12//6 10//6 14//6
f 17//1 18//1 20//1 19//1
f 19//2 20//2 24//2 23//2
f 23//3 24//3 22//3 21//3
f 21//4 22//4 18//4 17//4
f 19//5 23//5 21//5 17//5
f 24//6 20//6 18//6 22//6
f 25//1 26//1 28//1 27//1
f 27//2 28//2 32//2 31//2
f 31//3 32//3 30//3 29//3
f 29//4 30//4 26//4 25//4
f 27//5 31//5 29//5 25//5
f 32//6 28//6 26//6 30//6
f 33//1 34//1 36//1 35//1
f 35//2 36//2 40//2 39//2
f 39//3 40//3 38//3 37//3
f 37//4 38//4 34//4 33//4
f 35//5 39//5 37//5 33//5
f 40//6 36//6 34//6 38//6
f 41//1 42//1 44//1 43//1
f 43//2 44//2 48//2 47//2
f 47//3 48//3 46//3 45//3
f 45//4 46//4 42//4 41//4
f 43//5 47//5 45//5 41//5
f 48//6 44//6 42//6 46//6
f 49//1 50//1 52//1 51//1
f 51//2 52//2 56//2 55//2
f 55//3 56//3 54//3 53//3
f 53//4 54//4 50//4 49//4
f 51//5 55//5 53//5 49//5
f 56//6 52//6 50//6 54//6
f 59//4 60//4 58//4 57//4
f 62//6 61//6 58//6 60//6
f 66//6 65//6 63//6 64//6
f 61//4 62//4 64//4 63//4
f 68//6 67//6 69//6 70//6
f 65//4 66//4 70//4 69//4
f 60//3 59//3 71//3 68//3 70//3 66//3 64//3 62//3
f 58//1 61//1 63//1 65//1 69//1 67//1 72//1 57//1
f 73//1 74//1 76//1 75//1
f 75//2 76//2 80//2 79//2
f 79//3 80//3 78//3 77//3
f 77//4 78//4 74//4 73//4
f 75//5 79//5 77//5 73//5
f 80//6 76//6 74//6 78//6
f 100//5 101//5 84//5 82//5
f 100//4 82//4 86//4 104//4
f 82//3 84//3 88//3 86//3
f 83//1 81//1 85//1 87//1
f 91//5 89//5 93//5 95//5
f 107//5 108//5 91//5 95//5 96//5 92//5
f 106//5 90//5 94//5 110//5
f 90//5 92//5 96//5 94//5
f 110//7 94//7 98//7 111//7
f 94//8 96//8 98//8
f 95//9 93//9 97//9
f 93//10 109//10 111//10 97//10
f 110//11 111//11 114//11 113//11
f 96//12 95//12 97//12 98//12
f 89//5 105//5 109//5 93//5
f 105//5 106//5 110//5 109//5
f 101//2 102//2 83//2 87//2 88//2 84//2
f 81//4 99//4 103//4 85//4
f 81//5 83//5 102//5 99//5
f 99//5 102//5 101//5 100//5
f 112//4 113//4 114//4
f 111//13 109//13 112//13 114//13
f 109//5 110//5 113//5 112//5
f 98//14 97//14 111//14
f 115//1 116//1 118//1 117//1
f 141//3 140//3 136//3 135//3
f 121//3 122//3 120//3 119//3
f 127//4 130//4 116//4 115//4
f 123//5 121//5 119//5 128//5
f 125//6 118//6 116//6 130//6
f 122//6 126//6 129//6 120//6
f 149//6 125//6 130//6 154//6
f 117//5 124//5 127//5 115//5
f 147//5 123//5 128//5 152//5
f 119//4 120//4 129//4 128//4
f 151//4 154//4 130//4 127//4
f 140//5 139//5 137//5 136//5
f 147//2 150//2 126//2 123//2
f 137//2 134//2 135//2 136//2
f 132//2 131//2 138//2 133//2
f 143//4 139//4 142//4 144//4
f 143//5 145//5 132//5 133//5
f 133//5 137//5 139//5 143//5
f 142//6 141//6 135//6 134//6
f 146//6 144//6 138//6 131//6
f 145//1 146//1 131//1 132//1
f 126//6 122//6 141//6 142//6
f 123//1 126//1 142//1 139//1
f 121//5 123//5 139//5 140//5
f 122//3 121//3 140//3 141//3
f 117//1 118//1 146//1 145//1
f 118//6 125//6 144//6 146//6
f 124//5 117//5 145//5 143//5
f 125//3 124//3 143//3 144//3
f 144//6 142//6 134//6 138//6
f 138//2 134//2 137//2 133//2
f 124//2 125//2 149//2 148//2
f 128//4 129//4 153//4 152//4
f 124//5 148//5 151//5 127//5
f 126//6 150//6 153//6 129//6
