# Blender v2.79 (sub 0) OBJ File: 'EXPORT ALL IN ONE.blend'
# www.blender.org
v -5.203831 0.000000 1.385352
v 24.979424 0.000001 1.385352
v -5.203831 0.000000 -1.385353
v -5.203831 5.340656 1.385352
v 24.979424 5.340656 1.385352
v -5.203831 5.340656 -1.385353
v 24.979424 5.340656 -1.385353
v 9.752337 0.000000 1.385352
v 12.109536 0.000000 1.385352
v 9.752337 0.000000 -1.385353
v 12.109536 1.823244 1.385352
v 9.752337 1.823243 1.385352
v 9.752337 1.823243 -1.385353
v 12.109536 1.823244 -1.385353
v 10.341638 2.238369 -1.385353
v 10.930936 2.373209 -1.385353
v 11.520236 2.238369 -1.385353
v 11.520236 2.238369 1.385352
v 10.930936 2.373209 1.385352
v 10.341638 2.238369 1.385352
v 24.979424 0.000001 -1.386655
v -5.203831 6.726008 -0.000000
v 24.979424 6.726009 -0.000000
v 12.109536 0.000000 -1.386655
v 24.979424 6.990865 -0.000000
v 24.979424 5.473102 1.517764
v -5.203831 5.473101 1.517764
v -5.203831 6.990865 -0.000000
v 24.979424 5.471936 -1.518929
v -5.203831 5.471936 -1.518929
v -5.203831 4.836478 -1.887669
v 24.979424 4.836478 -1.887669
v -5.203831 4.967734 -2.022100
v 24.979424 4.967735 -2.022100
v -5.203831 4.762017 1.964136
v 24.979424 4.762017 1.964136
v 24.979424 4.894462 2.096548
v -5.203831 4.894462 2.096548
v 24.979424 0.622504 1.385352
v 12.109536 0.622504 1.385352
v -5.203831 0.622503 1.385352
v 9.752337 0.622503 1.385352
v 9.752337 0.424866 1.662045
v 9.752337 0.000000 1.662045
v 12.109536 0.000000 1.662045
v 24.979424 0.000001 1.662045
v -5.203831 0.000000 1.662045
v 24.979424 0.424866 1.662045
v 12.109536 0.424866 1.662045
v -5.203831 0.424866 1.662045
v 9.750669 0.000000 1.385352
v 12.107869 0.000000 1.385352
v 12.107869 1.823243 1.385352
v 9.750669 1.823243 1.385352
v 11.518569 2.238369 1.385352
v 10.929269 2.373209 1.385352
v 10.339970 2.238369 1.385352
v 9.434021 0.002959 1.385352
v 12.424518 0.002959 1.385352
v 12.424518 1.994286 1.385352
v 9.434021 1.994286 1.385352
v 11.676894 2.520942 1.385352
v 10.929269 2.692009 1.385352
v 10.181644 2.520942 1.385352
v 9.750669 0.000000 1.616986
v 12.107869 0.000000 1.616986
v 12.107869 1.823243 1.616986
v 9.750669 1.823243 1.616986
v 11.518569 2.238369 1.616986
v 10.929269 2.373209 1.616986
v 10.339970 2.238369 1.616986
v 9.434021 0.002959 1.616986
v 12.424518 0.002959 1.616986
v 12.424518 1.994286 1.616986
v 9.434021 1.994286 1.616986
v 11.676894 2.520942 1.616986
v 10.929269 2.692009 1.616986
v 10.181644 2.520942 1.616986
v -3.056535 0.000000 2.715414
v -3.056535 5.087731 1.716346
v -3.056535 0.000000 1.385352
v -3.056535 5.087731 1.385352
v -2.640929 0.000000 2.715414
v -2.640929 5.087731 1.716346
v -2.640929 0.000000 1.385352
v -2.640929 5.087731 1.385352
v -3.056535 0.351129 2.715414
v -3.056535 0.351129 1.385352
v -2.640929 0.351129 1.385352
v -2.640929 0.351129 2.715414
v -4.114576 0.000000 2.715413
v -4.114576 5.070877 1.716345
v -4.114577 0.000000 1.385351
v -4.114577 5.070877 1.385351
v -3.698971 0.000000 2.715413
v -3.698971 5.070877 1.716345
v -3.698971 0.000000 1.385351
v -3.698971 5.070877 1.385351
v -4.114576 0.351129 2.715413
v -4.114577 0.351129 1.385351
v -3.698971 0.351129 1.385351
v -3.698971 0.351129 2.715413
v -5.208548 0.000000 2.715413
v -5.208549 5.140144 1.716345
v -5.208549 0.000000 1.385351
v -5.208549 5.140144 1.385351
v -4.485655 0.000000 2.715413
v -4.485655 5.140144 1.716345
v -4.485655 0.000000 1.385351
v -4.485655 5.140144 1.385351
v -5.208548 0.351129 2.715413
v -5.208549 0.351129 1.385351
v -4.485655 0.351129 1.385351
v -4.485655 0.351129 2.715413
v 3.658027 0.000000 2.078028
v 3.658027 1.385352 2.078028
v 3.658027 0.000000 1.385352
v 3.658027 1.385352 1.385352
v 4.766309 0.000000 2.078028
v 4.766309 1.385352 2.078028
v 4.766309 0.000000 1.385352
v 4.766309 1.385352 1.385352
v 4.212168 2.078028 2.078028
v 4.212168 2.078028 1.385352
v 4.212168 2.078028 2.078028
v 4.212168 2.078028 1.385352
v 3.658027 0.000000 1.952628
v 3.658027 1.385352 1.952628
v 4.766309 0.000000 1.952628
v 4.766309 1.385352 1.952628
v 4.212168 2.078028 1.952628
v 4.212168 2.078028 1.952628
v 3.612574 1.442169 1.952628
v 4.166715 2.134845 1.952628
v 4.166715 2.134845 2.078028
v 3.612574 1.442169 2.078028
v 4.811761 1.442169 2.078028
v 4.257621 2.134845 2.078028
v 4.257621 2.134845 1.952628
v 4.811761 1.442169 1.952628
v 4.212168 2.078028 1.385352
v 4.212168 2.078028 2.078028
v 4.212168 2.078028 1.952628
v 4.212168 2.078028 2.078028
v 4.073632 0.818542 2.046445
v 3.935097 0.000000 2.046445
v 4.212168 2.078028 1.385352
v 4.212168 2.078028 1.952628
v 4.489239 0.000000 2.046445
v 4.212168 2.078028 1.385352
v 4.212168 2.078028 1.952628
v 4.212168 2.078028 2.078028
v 3.658027 0.692676 1.385352
v 4.766309 0.692676 1.385352
v 4.212168 0.848339 2.046445
v 3.935097 0.715599 2.046445
v 4.489239 0.715599 2.046445
v 4.350702 0.818542 2.046445
v 4.212168 0.848339 1.956640
v 3.935097 0.715599 1.956640
v 3.935097 0.000000 1.956640
v 4.489239 0.000000 1.956640
v 4.073632 0.818542 1.956640
v 4.489239 0.715599 1.956640
v 4.350702 0.818542 1.956640
v 15.749375 0.000000 2.078028
v 15.749375 1.385353 2.078028
v 15.749375 0.000000 1.385352
v 15.749375 1.385353 1.385352
v 14.641095 0.000000 2.078028
v 14.641095 1.385353 2.078028
v 14.641095 0.000000 1.385352
v 14.641095 1.385353 1.385352
v 15.195235 2.078029 2.078028
v 15.195235 2.078029 1.385352
v 15.195235 2.078029 2.078028
v 15.195235 2.078029 1.385352
v 15.749375 0.000000 1.952628
v 15.749375 1.385353 1.952628
v 14.641095 0.000000 1.952628
v 14.641095 1.385353 1.952628
v 15.195235 2.078029 1.952628
v 15.195235 2.078029 1.952628
v 15.794829 1.442169 1.952628
v 15.240689 2.134845 1.952628
v 15.240689 2.134845 2.078028
v 15.794829 1.442169 2.078028
v 14.595641 1.442169 2.078028
v 15.149781 2.134845 2.078028
v 15.149781 2.134845 1.952628
v 14.595641 1.442169 1.952628
v 15.195235 2.078029 1.385352
v 15.195235 2.078029 2.078028
v 15.195235 2.078029 1.952628
v 15.195235 2.078029 2.078028
v 15.333770 0.818543 2.046445
v 15.472306 0.000000 2.046445
v 15.195235 2.078029 1.385352
v 15.195235 2.078029 1.952628
v 14.918162 0.000000 2.046445
v 15.195235 2.078029 1.385352
v 15.195235 2.078029 1.952628
v 15.195235 2.078029 2.078028
v 15.749375 0.692677 1.385352
v 14.641095 0.692677 1.385352
v 15.195235 0.848339 2.046445
v 15.472306 0.715600 2.046445
v 14.918162 0.715600 2.046445
v 15.056699 0.818543 2.046445
v 15.195235 0.848339 1.956640
v 15.472306 0.715600 1.956640
v 15.472306 0.000000 1.956640
v 14.918162 0.000000 1.956640
v 15.333770 0.818543 1.956640
v 14.918162 0.715600 1.956640
v 15.056699 0.818543 1.956640
v 5.788915 1.114116 2.462152
v 6.718297 1.114116 2.462152
v 6.718297 1.114116 2.386580
v 5.788915 1.114116 2.386580
v 5.788915 0.833504 2.742763
v 6.718297 0.833504 2.742763
v 5.788915 1.114116 2.386580
v 6.718297 1.114116 2.386580
v 6.718297 1.114116 2.462152
v 5.788915 1.114116 2.462152
v 5.788915 0.833504 2.105969
v 6.718297 0.833504 2.105969
v 5.943454 0.500011 2.386580
v 5.943454 0.983744 2.386580
v 5.943454 0.500011 2.462152
v 5.943454 0.983744 2.462152
v 6.563758 0.500011 2.386580
v 6.563758 0.983744 2.386580
v 6.563758 0.500011 2.462152
v 6.563758 0.983744 2.462152
v 6.512438 0.500011 2.462152
v 5.994773 0.500011 2.462152
v 5.994773 0.983744 2.462152
v 6.512438 0.983744 2.462152
v 5.994773 0.500011 2.386580
v 6.512438 0.500011 2.386580
v 6.512438 0.983744 2.386580
v 5.994773 0.983744 2.386580
v 5.943454 0.000555 2.462152
v 5.943454 0.000555 2.386580
v 5.994773 0.000555 2.462152
v 6.563758 0.000555 2.386580
v 6.563758 0.000555 2.462152
v 6.512438 0.000555 2.386580
v 6.512438 0.000555 2.462152
v 5.994773 0.000555 2.386580
vn -0.0000 0.7071 0.7071
vn 0.0000 -1.0000 0.0000
vn -1.0000 0.0000 0.0000
vn 0.5759 -0.8175 0.0000
vn 1.0000 0.0000 0.0000
vn 0.2231 -0.9748 0.0000
vn -0.2230 -0.9748 0.0000
vn -0.0000 0.7071 -0.7071
vn 0.0000 -0.7072 -0.7070
vn 0.0000 -0.7155 -0.6986
vn -0.0000 0.7064 -0.7078
vn 0.0000 -0.7058 0.7084
vn 0.0000 -0.7070 0.7072
vn -0.0000 0.7072 0.7070
vn -0.0000 0.0001 -1.0000
vn -0.0000 0.0000 1.0000
vn -0.5759 -0.8175 0.0000
vn -0.0000 0.8137 0.5812
vn 0.0000 0.0000 -1.0000
vn -0.2230 0.9748 0.0000
vn -0.0093 -1.0000 0.0000
vn 0.2230 0.9748 0.0000
vn 0.2230 -0.9748 0.0000
vn 0.5759 0.8175 0.0000
vn 0.0093 -1.0000 0.0000
vn -0.5759 0.8175 0.0000
vn 0.0000 0.2064 0.9785
vn 0.0000 1.0000 0.0000
vn 0.0000 0.2071 0.9783
vn 0.0000 0.2042 0.9789
vn -0.7809 0.6247 0.0000
vn 0.7809 0.6247 0.0000
vn -0.7809 -0.6247 0.0000
vn 0.7809 -0.6247 0.0000
vn 0.0000 -0.0240 0.9997
vn 0.5964 -0.8027 0.0000
vn 0.2103 -0.9776 0.0000
vn -0.5964 -0.8027 0.0000
vn -0.2103 -0.9776 0.0000
s off
f 23//1 22//1 4//1 5//1
f 1//2 8//2 44//2 47//2
f 1//2 3//2 10//2 8//2
f 3//3 1//3 41//3 4//3 22//3 6//3
f 13//4 15//4 20//4 12//4
f 12//5 42//5 8//5 10//5 13//5
f 19//6 20//6 15//6 16//6
f 18//7 19//7 16//7 17//7
f 14//3 24//3 9//3 40//3 11//3
f 7//8 6//8 22//8 23//8
f 9//2 24//2 21//2 2//2
f 25//1 28//1 27//1 26//1
f 29//8 30//8 28//8 25//8
f 6//3 30//3 33//3 31//3
f 22//3 28//3 30//3 6//3
f 4//3 27//3 28//3 22//3
f 4//9 5//9 36//9 35//9
f 23//5 25//5 26//5 5//5
f 7//5 29//5 25//5 23//5
f 31//10 33//10 34//10 32//10
f 30//11 29//11 34//11 33//11
f 7//12 6//12 31//12 32//12
f 29//5 7//5 32//5 34//5
f 36//13 37//13 38//13 35//13
f 5//5 26//5 37//5 36//5
f 26//14 27//14 38//14 37//14
f 27//3 4//3 35//3 38//3
f 10//15 3//15 6//15 7//15 21//15 24//15 14//15 17//15 16//15 15//15 13//15
f 40//3 9//3 45//3 49//3
f 41//16 42//16 12//16 20//16 19//16 18//16 11//16 40//16 39//16 5//16 4//16
f 2//5 21//5 7//5 23//5 5//5 39//5
f 11//17 18//17 17//17 14//17
f 47//16 44//16 43//16 50//16
f 48//16 49//16 45//16 46//16
f 39//18 40//18 49//18 48//18
f 2//5 39//5 48//5 46//5
f 42//18 41//18 50//18 43//18
f 9//2 2//2 46//2 45//2
f 41//3 1//3 47//3 50//3
f 8//5 42//5 43//5 44//5
f 53//19 55//19 62//19 60//19
f 56//19 57//19 64//19 63//19
f 54//19 51//19 58//19 61//19
f 57//19 54//19 61//19 64//19
f 55//19 56//19 63//19 62//19
f 52//19 53//19 60//19 59//19
f 67//16 74//16 76//16 69//16
f 70//16 77//16 78//16 71//16
f 68//16 75//16 72//16 65//16
f 71//16 78//16 75//16 68//16
f 69//16 76//16 77//16 70//16
f 66//16 73//16 74//16 67//16
f 51//5 54//5 68//5 65//5
f 63//20 64//20 78//20 77//20
f 53//3 52//3 66//3 67//3
f 58//21 51//21 65//21 72//21
f 62//22 63//22 77//22 76//22
f 57//23 56//23 70//23 71//23
f 60//24 62//24 76//24 74//24
f 56//7 55//7 69//7 70//7
f 52//25 59//25 73//25 66//25
f 64//26 61//26 75//26 78//26
f 55//17 53//17 67//17 69//17
f 54//4 57//4 71//4 68//4
f 61//3 58//3 72//3 75//3
f 59//5 60//5 74//5 73//5
f 87//3 80//3 82//3 88//3
f 88//19 82//19 86//19 89//19
f 89//5 86//5 84//5 90//5
f 90//27 84//27 80//27 87//27
f 81//2 85//2 83//2 79//2
f 86//28 82//28 80//28 84//28
f 83//16 90//16 87//16 79//16
f 85//5 89//5 90//5 83//5
f 81//19 88//19 89//19 85//19
f 79//3 87//3 88//3 81//3
f 99//3 92//3 94//3 100//3
f 100//19 94//19 98//19 101//19
f 101//5 98//5 96//5 102//5
f 102//29 96//29 92//29 99//29
f 93//2 97//2 95//2 91//2
f 98//28 94//28 92//28 96//28
f 95//16 102//16 99//16 91//16
f 97//5 101//5 102//5 95//5
f 93//19 100//19 101//19 97//19
f 91//3 99//3 100//3 93//3
f 111//3 104//3 106//3 112//3
f 112//19 106//19 110//19 113//19
f 113//5 110//5 108//5 114//5
f 114//30 108//30 104//30 111//30
f 105//2 109//2 107//2 103//2
f 110//28 106//28 104//28 108//28
f 107//16 114//16 111//16 103//16
f 109//5 113//5 114//5 107//5
f 105//19 112//19 113//19 109//19
f 103//3 111//3 112//3 105//3
f 154//5 122//5 130//5 120//5 119//5 129//5 121//5
f 128//31 116//31 123//31 131//31
f 148//16 131//16 123//16 144//16
f 147//16 118//16 124//16
f 130//32 122//32 126//32 132//32
f 120//33 125//33 132//33 130//33
f 147//16 124//16 131//16 148//16
f 118//31 128//31 131//31 124//31
f 133//31 136//31 135//31 134//31
f 137//32 140//32 139//32 138//32
f 128//19 133//19 134//19 131//19
f 132//19 139//19 140//19 130//19
f 131//32 134//32 135//32 123//32
f 120//16 137//16 138//16 125//16
f 123//16 135//16 136//16 116//16
f 125//31 138//31 139//31 132//31
f 116//33 136//33 133//33 128//33
f 130//34 140//34 137//34 120//34
f 134//28 135//28 138//28 139//28
f 150//16 141//16 143//16 151//16
f 116//16 120//16 125//16 152//16 142//16 144//16 123//16
f 151//16 143//16 142//16 152//16
f 146//35 156//35 145//35 155//35 158//35 157//35 149//35 119//35 120//35 116//35 115//35
f 122//19 154//19 153//19 118//19 147//19 141//19 150//19
f 141//16 147//16 148//16 143//16
f 143//16 148//16 144//16 142//16
f 132//16 151//16 152//16 125//16
f 122//16 150//16 126//16
f 126//16 150//16 151//16 132//16
f 145//36 156//36 160//36 163//36
f 153//19 154//19 121//19 117//19
f 156//5 146//5 161//5 160//5
f 155//37 145//37 163//37 159//37
f 153//3 117//3 127//3 115//3 116//3 128//3 118//3
f 149//3 157//3 164//3 162//3
f 163//16 160//16 161//16 162//16 164//16 165//16 159//16
f 157//38 158//38 165//38 164//38
f 158//39 155//39 159//39 165//39
f 205//3 172//3 180//3 170//3 171//3 181//3 173//3
f 179//32 182//32 174//32 167//32
f 199//16 195//16 174//16 182//16
f 198//16 175//16 169//16
f 181//31 183//31 177//31 173//31
f 171//31 176//31 183//31 181//31
f 198//16 199//16 182//16 175//16
f 169//32 175//32 182//32 179//32
f 184//32 185//32 186//32 187//32
f 188//31 189//31 190//31 191//31
f 179//19 182//19 185//19 184//19
f 183//19 181//19 191//19 190//19
f 182//31 174//31 186//31 185//31
f 171//16 176//16 189//16 188//16
f 174//16 167//16 187//16 186//16
f 176//32 183//32 190//32 189//32
f 167//34 179//34 184//34 187//34
f 181//33 171//33 188//33 191//33
f 185//2 186//2 189//2 190//2
f 201//16 202//16 194//16 192//16
f 167//16 174//16 195//16 193//16 203//16 176//16 171//16
f 202//16 203//16 193//16 194//16
f 197//35 166//35 167//35 171//35 170//35 200//35 208//35 209//35 206//35 196//35 207//35
f 173//19 201//19 192//19 198//19 169//19 204//19 205//19
f 192//16 194//16 199//16 198//16
f 194//16 193//16 195//16 199//16
f 183//16 176//16 203//16 202//16
f 173//16 177//16 201//16
f 177//16 183//16 202//16 201//16
f 196//38 214//38 211//38 207//38
f 204//19 168//19 172//19 205//19
f 207//3 211//3 212//3 197//3
f 206//39 210//39 214//39 196//39
f 204//5 169//5 179//5 167//5 166//5 178//5 168//5
f 200//5 213//5 215//5 208//5
f 214//16 210//16 216//16 215//16 213//16 212//16 211//16
f 208//36 215//36 216//36 209//36
f 209//37 216//37 210//37 206//37
f 217//1 221//1 222//1 218//1
f 218//28 219//28 220//28 217//28
f 223//8 224//8 228//8 227//8
f 224//28 223//28 226//28 225//28
f 229//3 231//3 232//3 230//3
f 237//16 235//16 236//16 240//16
f 235//5 233//5 234//5 236//5
f 241//19 229//19 230//19 244//19
f 238//5 247//5 252//5 241//5
f 239//28 244//28 230//28 232//28
f 236//28 234//28 243//28 240//28
f 240//28 243//28 244//28 239//28
f 231//16 245//16 247//16 238//16
f 238//2 241//2 242//2 237//2
f 233//19 242//19 243//19 234//19
f 242//19 241//19 244//19 243//19
f 231//16 238//16 239//16 232//16
f 238//16 237//16 240//16 239//16
f 251//2 250//2 248//2 249//2
f 245//2 246//2 252//2 247//2
f 229//3 246//3 245//3 231//3
f 235//5 249//5 248//5 233//5
f 241//19 252//19 246//19 229//19
f 242//3 250//3 251//3 237//3
f 237//16 251//16 249//16 235//16
f 233//19 248//19 250//19 242//19
