# 
# Generated by Sweet Home 3D - Wed Feb 12 20:27:24 IST 2020
# http://www.sweethome3d.com/
# 
mtllib Normal.mtl
g wall_1_1_1_1
usemtl wall_1_1
v 346.55453 340.0074 2.7504377
v 346.55453 217.2804 -239.21709
v 346.55453 220.67834 -240.94048
v 346.55453 343.40533 1.0270491
vn 1.0 -0 -0
f 1//1 2//1 3//1
f 1//1 3//1 4//1
g wall_1_2_2_2
usemtl wall_1_1
v 346.55453 336.60944 4.4738264
v 346.55453 213.88245 -237.4937
f 5//1 6//1 2//1
f 5//1 2//1 1//1
g wall_1_3_3_3
usemtl wall_1_1
v -354.48544 220.67834 -240.94048
v -354.48544 343.40533 1.0270491
v -354.48544 217.2804 -239.21709
v -354.48544 340.0074 2.7504377
vn -0 0.89184237 -0.45234635
vn -0 -0.45233256 -0.89184934
vn 0 0.45233256 0.89184934
f 4//2 3//2 7//2
f 4//2 7//2 8//2
f 3//3 2//3 9//3
f 3//3 9//3 7//3
f 1//4 4//4 8//4
f 1//4 8//4 10//4
g wall_1_4_4_4
usemtl wall_1_1
v -354.48544 213.88245 -237.4937
v -354.48544 336.60944 4.4738264
vn 0 -0.89184237 0.45234635
f 2//3 6//3 11//3
f 2//3 11//3 9//3
f 6//5 5//5 12//5
f 6//5 12//5 11//5
f 5//4 1//4 10//4
f 5//4 10//4 12//4
g wall_1_5_5_5
usemtl wall_1_1
vn -1.0 0 0
f 8//6 7//6 9//6
f 8//6 9//6 10//6
g wall_1_6_6_6
usemtl wall_1_1
f 10//6 9//6 11//6
f 10//6 11//6 12//6
g wall_2_7_7_7
usemtl wall_1_1
v 346.55453 216.75793 242.04036
v 346.55453 213.35999 240.31697
v 346.55453 336.08698 -1.6505632
v 346.55453 339.48492 0.07282543
f 13//1 14//1 15//1
f 13//1 15//1 16//1
g wall_2_8_8_8
usemtl wall_1_1
v 346.55453 220.15588 243.76375
v 346.55453 342.88287 1.7962141
f 17//1 13//1 16//1
f 17//1 16//1 18//1
g wall_2_9_9_9
usemtl wall_1_1
v -354.48544 336.08698 -1.6505632
v -354.48544 339.48492 0.07282543
v -354.48544 213.35999 240.31697
v -354.48544 216.75793 242.04036
vn -0 0.45233256 -0.89184934
vn -0 -0.89184237 -0.45234635
vn 0 -0.45233256 0.89184934
f 16//7 15//7 19//7
f 16//7 19//7 20//7
f 15//8 14//8 21//8
f 15//8 21//8 19//8
f 14//9 13//9 22//9
f 14//9 22//9 21//9
g wall_2_10_10_10
usemtl wall_1_1
v -354.48544 342.88287 1.7962141
v -354.48544 220.15588 243.76375
vn 0 0.89184237 0.45234635
f 18//7 16//7 20//7
f 18//7 20//7 23//7
f 13//9 17//9 24//9
f 13//9 24//9 22//9
f 17//10 18//10 23//10
f 17//10 23//10 24//10
g wall_2_11_11_11
usemtl wall_1_1
f 20//6 19//6 21//6
f 20//6 21//6 22//6
g wall_2_12_12_12
usemtl wall_1_1
f 23//6 20//6 22//6
f 23//6 22//6 24//6
g wall_1_13
usemtl wall_1_13
v -326.8874 0.0 -189.70078
v -326.8874 0.0 -6.8207893
v -323.0774 0.0 -6.8207893
v -323.0774 0.0 -189.70078
vn 0.0 -1.0 0.0
f 28//11 27//11 26//11
f 28//11 26//11 25//11
g wall_1_14
usemtl wall_1_13
v -319.2674 0.0 -6.8207893
v -319.2674 0.0 -189.70078
f 30//11 29//11 27//11
f 30//11 27//11 28//11
g wall_1_15
usemtl wall_1_13
v -326.8874 335.27997 -6.8207893
v -326.8874 243.84 -189.70078
v -323.0774 335.27997 -6.8207893
v -323.0774 243.84 -189.70078
vn -1.0 0.0 0.0
vn 0.0 0.0 1.0
vn 0.0 0.0 -1.0
vn 0.0 0.0 0.0
f 25//12 26//12 31//12 32//12
f 26//13 27//13 33//13 31//13
f 28//14 25//14 32//14 34//14
g wall_1_16
usemtl wall_1_13
v -319.2674 335.27997 -6.8207893
v -319.2674 243.84 -189.70078
vn 1.0 0.0 0.0
f 27//13 29//13 35//13 33//13
f 29//16 30//16 36//16 35//16
f 30//14 28//14 34//14 36//14
g wall_1_17
usemtl wall_1_13
vn 0.0 0.89442724 -0.4472135
f 32//17 31//17 33//17
f 32//17 33//17 34//17
g wall_1_18
usemtl wall_1_13
f 34//17 33//17 35//17
f 34//17 35//17 36//17
g wall_2_19
usemtl wall_1_13
v -326.8874 0.0 -189.70074
v -323.0774 0.0 -189.70074
f 38//11 27//11 26//11
f 38//11 26//11 37//11
g wall_2_20
usemtl wall_1_13
v -319.2674 0.0 -189.70074
f 39//11 29//11 27//11
f 39//11 27//11 38//11
g wall_2_21
usemtl wall_1_13
v -326.8874 243.84 -189.70074
v -323.0774 243.84 -189.70074
f 37//12 26//12 31//12 40//12
f 26//13 27//13 33//13 31//13
f 38//14 37//14 40//14 41//14
g wall_2_22
usemtl wall_1_13
v -319.2674 243.84 -189.70074
f 27//13 29//13 35//13 33//13
f 29//16 39//16 42//16 35//16
f 39//14 38//14 41//14 42//14
g wall_2_23
usemtl wall_1_13
vn 0.0 0.8944272 -0.44721356
f 40//18 31//18 33//18
f 40//18 33//18 41//18
g wall_2_24
usemtl wall_1_13
f 41//18 33//18 35//18
f 41//18 35//18 42//18
g wall_3_25
usemtl wall_1_13
v -322.88647 0.0 -7.7206917
v -322.88647 0.0 175.1593
v -319.07648 0.0 175.1593
v -319.07648 0.0 -7.7206917
f 46//11 45//11 44//11
f 46//11 44//11 43//11
g wall_3_26
usemtl wall_1_13
v -326.69647 0.0 -7.7206917
v -326.69647 0.0 175.1593
f 43//11 44//11 48//11
f 43//11 48//11 47//11
g wall_3_27
usemtl wall_1_13
v -319.07648 243.84 175.1593
v -322.88647 243.84 175.1593
v -319.07648 335.27997 -7.7206917
v -322.88647 335.27997 -7.7206917
f 44//13 45//13 49//13 50//13
f 45//16 46//16 51//16 49//16
f 46//14 43//14 52//14 51//14
g wall_3_28
usemtl wall_1_13
v -326.69647 243.84 175.1593
v -326.69647 335.27997 -7.7206917
f 47//12 48//12 53//12 54//12
f 48//13 44//13 50//13 53//13
f 43//14 47//14 54//14 52//14
g wall_3_29
usemtl wall_1_13
vn 0.0 0.89442724 0.4472135
f 52//19 50//19 49//19
f 52//19 49//19 51//19
g wall_3_30
usemtl wall_1_13
f 54//19 53//19 50//19
f 54//19 50//19 52//19
g wall_4_31
usemtl wall_1_13
v 307.03436 0.0 -189.32523
v 307.03436 0.0 -6.445179
v 310.84436 0.0 -6.445179
v 310.84436 0.0 -189.32523
f 58//11 57//11 56//11
f 58//11 56//11 55//11
g wall_4_32
usemtl wall_1_13
v 314.65436 0.0 -6.445179
v 314.65436 0.0 -189.32523
f 60//11 59//11 57//11
f 60//11 57//11 58//11
g wall_4_33
usemtl wall_1_13
v 307.03436 335.27997 -6.445179
v 307.03436 243.84 -189.32523
v 310.84436 335.27997 -6.445179
v 310.84436 243.84 -189.32523
f 55//12 56//12 61//12 62//12
f 56//13 57//13 63//13 61//13
f 58//14 55//14 62//14 64//14
g wall_4_34
usemtl wall_1_13
v 314.65436 335.27997 -6.445179
v 314.65436 243.84 -189.32523
f 57//13 59//13 65//13 63//13
f 59//16 60//16 66//16 65//16
f 60//14 58//14 64//14 66//14
g wall_4_35
usemtl wall_1_13
vn 0.0 0.89442724 -0.44721338
f 62//20 61//20 63//20
f 62//20 63//20 64//20
g wall_4_36
usemtl wall_1_13
f 64//20 63//20 65//20
f 64//20 65//20 66//20
g wall_5_37
usemtl wall_1_13
v 307.03436 0.0 -189.3252
v 310.84436 0.0 -189.3252
f 68//11 57//11 56//11
f 68//11 56//11 67//11
g wall_5_38
usemtl wall_1_13
v 314.65436 0.0 -189.3252
f 69//11 59//11 57//11
f 69//11 57//11 68//11
g wall_5_39
usemtl wall_1_13
v 307.03436 243.84 -189.3252
v 310.84436 243.84 -189.3252
f 67//12 56//12 61//12 70//12
f 56//13 57//13 63//13 61//13
f 68//14 67//14 70//14 71//14
g wall_5_40
usemtl wall_1_13
v 314.65436 243.84 -189.3252
f 57//13 59//13 65//13 63//13
f 59//16 69//16 72//16 65//16
f 69//14 68//14 71//14 72//14
g wall_5_41
usemtl wall_1_13
vn 0.0 0.89442724 -0.44721347
f 70//21 61//21 63//21
f 70//21 63//21 71//21
g wall_5_42
usemtl wall_1_13
f 71//21 63//21 65//21
f 71//21 65//21 72//21
g wall_6_43
usemtl wall_1_13
v 311.0354 0.0 -7.3450813
v 311.0354 0.0 175.53491
v 314.8454 0.0 175.53491
v 314.8454 0.0 -7.3450813
f 76//11 75//11 74//11
f 76//11 74//11 73//11
g wall_6_44
usemtl wall_1_13
v 307.2254 0.0 -7.3450813
v 307.2254 0.0 175.53491
f 73//11 74//11 78//11
f 73//11 78//11 77//11
g wall_6_45
usemtl wall_1_13
v 314.8454 243.84 175.53491
v 311.0354 243.84 175.53491
v 314.8454 335.27997 -7.3450813
v 311.0354 335.27997 -7.3450813
f 74//13 75//13 79//13 80//13
f 75//16 76//16 81//16 79//16
f 76//14 73//14 82//14 81//14
g wall_6_46
usemtl wall_1_13
v 307.2254 243.84 175.53491
v 307.2254 335.27997 -7.3450813
f 77//12 78//12 83//12 84//12
f 78//13 74//13 80//13 83//13
f 73//14 77//14 84//14 82//14
g wall_6_47
usemtl wall_1_13
f 82//19 80//19 79//19
f 82//19 79//19 81//19
g wall_6_48
usemtl wall_1_13
f 84//19 83//19 80//19
f 84//19 80//19 82//19
g wall_7_49
usemtl wall_1_13
v -325.89062 0.0 -189.77737
v -325.89062 0.0 -185.96738
v 308.03125 0.0 -185.96738
v 308.03125 0.0 -189.77737
f 88//11 87//11 86//11
f 88//11 86//11 85//11
g wall_7_50
usemtl wall_1_13
v -325.89062 0.0 -182.15738
v 308.03125 0.0 -182.15738
f 87//11 90//11 89//11
f 87//11 89//11 86//11
g wall_7_51
usemtl wall_1_13
v -325.89062 243.84 -185.96738
v -325.89062 243.84 -189.77737
v 308.03125 243.84 -189.77737
v 308.03125 243.84 -185.96738
f 85//12 86//12 91//12 92//12
f 87//16 88//16 93//16 94//16
f 88//14 85//14 92//14 93//14
g wall_7_52
usemtl wall_1_13
v -325.89062 243.84 -182.15738
v 308.03125 243.84 -182.15738
f 86//12 89//12 95//12 91//12
f 89//13 90//13 96//13 95//13
f 90//16 87//16 94//16 96//16
g wall_7_53
usemtl wall_1_13
vn 0.0 1.0 0.0
f 92//22 91//22 94//22
f 92//22 94//22 93//22
g wall_7_54
usemtl wall_1_13
f 91//22 95//22 96//22
f 91//22 96//22 94//22
g wall_8_55
usemtl wall_1_13
v -322.88647 0.0 167.70856
v -322.88647 0.0 171.51855
v 311.0354 0.0 171.51855
v 311.0354 0.0 167.70856
f 100//11 99//11 98//11
f 100//11 98//11 97//11
g wall_8_56
usemtl wall_1_13
v -322.88647 0.0 175.32855
v 311.0354 0.0 175.32855
f 99//11 102//11 101//11
f 99//11 101//11 98//11
g wall_8_57
usemtl wall_1_13
v -322.88647 243.84 171.51855
v -322.88647 243.84 167.70856
v 311.0354 243.84 167.70856
v 311.0354 243.84 171.51855
f 97//12 98//12 103//12 104//12
f 99//16 100//16 105//16 106//16
f 100//14 97//14 104//14 105//14
g wall_8_58
usemtl wall_1_13
v -322.88647 243.84 175.32855
v 311.0354 243.84 175.32855
f 98//12 101//12 107//12 103//12
f 101//13 102//13 108//13 107//13
f 102//16 99//16 106//16 108//16
g wall_8_59
usemtl wall_1_13
f 104//22 103//22 106//22
f 104//22 106//22 105//22
g wall_8_60
usemtl wall_1_13
f 103//22 107//22 108//22
f 103//22 108//22 106//22
